<svg width="64" height="64" viewBox="0 0 64 64" fill="none" xmlns="http://www.w3.org/2000/svg">
  <defs>
    <linearGradient id="bg" x1="8" y1="10" x2="56" y2="54" gradientUnits="userSpaceOnUse">
      <stop stop-color="#0F172A" />
      <stop offset="0.55" stop-color="#0F766E" />
      <stop offset="1" stop-color="#0284C7" />
    </linearGradient>
    <linearGradient id="accent" x1="20" y1="18" x2="46" y2="48" gradientUnits="userSpaceOnUse">
      <stop stop-color="#67E8F9" />
      <stop offset="1" stop-color="#FFFFFF" />
    </linearGradient>
  </defs>
  <rect x="4" y="4" width="56" height="56" rx="18" fill="url(#bg)" />
  <rect x="16" y="16" width="32" height="32" rx="10" fill="rgba(255,255,255,0.08)" stroke="rgba(255,255,255,0.18)" />
  <path d="M22 41V23h10.7c4.7 0 8.1 3.1 8.1 7.6 0 4.6-3.4 7.8-8.1 7.8H28v2.6h-6Zm6-8.5h4.4c1.9 0 3.1-1.2 3.1-2.9 0-1.6-1.2-2.8-3.1-2.8H28v5.7Z" fill="url(#accent)"/>
  <path d="M38.5 22.5c2.2 0 4 1.8 4 4s-1.8 4-4 4-4-1.8-4-4 1.8-4 4-4Z" fill="#F8FAFC" fill-opacity="0.9"/>
  <path d="M18 45.5c4.2-1.8 6.4-4.3 8.5-7.5" stroke="#BAE6FD" stroke-width="2.2" stroke-linecap="round" stroke-linejoin="round"/>
</svg>